<svg xmlns="http://www.w3.org/2000/svg" viewBox="0 0 256 179">
  <path d="M106.8 21.2c8.4-8.7 20.1-14.1 33.1-14.1 17.4 0 32.6 9.8 40.6 24.3 7-3.1 14.8-4.8 22.9-4.8 32.1 0 58.1 26.1 58.1 58.3 0 32.2-26 58.3-58.1 58.3-3.8 0-7.5-.4-11.1-1.1-7 12.2-20.2 20.4-35.2 20.4-6.1 0-11.9-1.4-17-3.9-7.2 16.5-23.7 28-43.1 28-19.7 0-36.5-11.8-43.5-28.8-3.4.7-6.9 1.1-10.5 1.1C19.4 159 0 139.5 0 115.4c0-15.9 8.5-29.9 21.2-37.6-2.6-6-4.1-12.6-4.1-19.5C17.1 26.1 43.2 0 75.3 0c13.3 0 25.5 4.3 35.3 11.5" fill="#00A1E0"/>
  <text x="25" y="120" font-family="Arial, sans-serif" font-size="52" font-weight="bold" fill="white">salesforce</text>
</svg>
